<svg width="32" height="32" viewBox="0 0 32 32" fill="none" xmlns="http://www.w3.org/2000/svg">
<path d="M25.6948 7.10689C23.9215 6.28022 22.0015 5.68022 20.0015 5.33356C19.9839 5.333 19.9665 5.33629 19.9504 5.3432C19.9342 5.35011 19.9198 5.36047 19.9081 5.37356C19.6681 5.81356 19.3881 6.38689 19.2015 6.82689C17.0801 6.50689 14.9228 6.50689 12.8015 6.82689C12.6148 6.37356 12.3348 5.81356 12.0815 5.37356C12.0681 5.34689 12.0281 5.33356 11.9881 5.33356C9.98812 5.68022 8.08146 6.28022 6.29479 7.10689C6.28146 7.10689 6.26813 7.12022 6.25479 7.13356C2.62813 12.5602 1.62813 17.8402 2.12146 23.0669C2.12146 23.0936 2.13479 23.1202 2.16146 23.1336C4.56146 24.8936 6.86813 25.9602 9.14813 26.6669C9.18813 26.6802 9.22813 26.6669 9.24146 26.6402C9.77479 25.9069 10.2548 25.1336 10.6681 24.3202C10.6948 24.2669 10.6681 24.2136 10.6148 24.2002C9.85479 23.9069 9.13479 23.5602 8.42813 23.1602C8.37479 23.1336 8.37479 23.0536 8.41479 23.0136C8.56146 22.9069 8.70813 22.7869 8.85479 22.6802C8.88146 22.6536 8.92146 22.6536 8.94813 22.6669C13.5348 24.7602 18.4815 24.7602 23.0148 22.6669C23.0415 22.6536 23.0815 22.6536 23.1081 22.6802C23.2548 22.8002 23.4015 22.9069 23.5481 23.0269C23.6015 23.0669 23.6015 23.1469 23.5348 23.1736C22.8415 23.5869 22.1081 23.9202 21.3481 24.2136C21.2948 24.2269 21.2815 24.2936 21.2948 24.3336C21.7215 25.1469 22.2015 25.9202 22.7215 26.6536C22.7615 26.6669 22.8015 26.6802 22.8415 26.6669C25.1348 25.9602 27.4415 24.8936 29.8415 23.1336C29.8681 23.1202 29.8815 23.0936 29.8815 23.0669C30.4681 17.0269 28.9081 11.7869 25.7481 7.13356C25.7348 7.12022 25.7215 7.10689 25.6948 7.10689ZM11.3615 19.8802C9.98813 19.8802 8.84146 18.6136 8.84146 17.0536C8.84146 15.4936 9.96146 14.2269 11.3615 14.2269C12.7748 14.2269 13.8948 15.5069 13.8815 17.0536C13.8815 18.6136 12.7615 19.8802 11.3615 19.8802ZM20.6548 19.8802C19.2815 19.8802 18.1348 18.6136 18.1348 17.0536C18.1348 15.4936 19.2548 14.2269 20.6548 14.2269C22.0681 14.2269 23.1881 15.5069 23.1748 17.0536C23.1748 18.6136 22.0681 19.8802 20.6548 19.8802Z" fill="#FFD600"/>
</svg>
