<svg width="269" height="68" viewBox="0 0 269 68" fill="none" xmlns="http://www.w3.org/2000/svg">
<path d="M0 68V0H29.4771C30.1558 0 31.0608 0.0314809 32.1921 0.094443C33.3556 0.125926 34.3899 0.220372 35.2949 0.377779C39.4644 1.00741 42.8743 2.34537 45.5246 4.39166C48.2073 6.43796 50.1789 9.01944 51.4394 12.1361C52.7 15.2213 53.3302 18.6685 53.3302 22.4778C53.3302 26.287 52.6838 29.75 51.391 32.8667C50.1304 35.9518 48.1588 38.5176 45.4762 40.5639C42.8258 42.6102 39.4321 43.9481 35.2949 44.5778C34.3899 44.7037 33.3556 44.7982 32.1921 44.8611C31.0285 44.9241 30.1235 44.9556 29.4771 44.9556H13.1871V68H0ZM13.1871 32.9611H28.8953C29.574 32.9611 30.3174 32.9296 31.1255 32.8667C31.9335 32.8037 32.6769 32.6778 33.3556 32.4889C35.1333 32.0167 36.507 31.2296 37.4766 30.1278C38.4463 28.9944 39.1088 27.7509 39.4644 26.3972C39.8522 25.012 40.0462 23.7056 40.0462 22.4778C40.0462 21.25 39.8522 19.9593 39.4644 18.6056C39.1088 17.2204 38.4463 15.9769 37.4766 14.875C36.507 13.7417 35.1333 12.9389 33.3556 12.4667C32.6769 12.2778 31.9335 12.1519 31.1255 12.0889C30.3174 12.0259 29.574 11.9944 28.8953 11.9944H13.1871V32.9611Z" fill="white"/>
<path d="M63.0645 68V0H108.638V11.9944H76.2516V26.5389H102.82V38.5333H76.2516V56.0056H108.638V68H63.0645Z" fill="white"/>
<path d="M115.41 68L136.742 0H156.426L177.758 68H164.183L145.178 8.02778H147.699L128.985 68H115.41ZM128.209 53.8333V41.8389H165.056V53.8333H128.209Z" fill="white"/>
<path d="M186.448 68V0H199.635V31.3556L226.203 0H242.299L213.113 33.5278L244.141 68H227.463L199.635 37.0222V68H186.448Z" fill="white"/>
<path d="M208.757 27.1992H268.908V40.7992H208.757V27.1992Z" fill="white"/>
</svg>
